<svg width="151" height="44" viewBox="0 0 151 44" fill="none" xmlns="http://www.w3.org/2000/svg">
<path d="M11.9542 4.84081C12.8036 4.20312 14.9642 3.46819 16.4046 3.32694C16.7475 3.29335 17.4789 3.27934 18.03 3.29591C20.4879 3.36962 22.8728 4.25578 24.443 5.67871C24.7478 5.95498 25.8286 7.27941 25.7827 7.32048C25.7272 7.37035 24.269 7.6552 23.6712 7.73301C22.8893 7.83474 22.4891 7.77878 21.575 7.43973C20.5479 7.05866 20.3842 7.00028 19.9057 6.84422C19.199 6.61378 18.024 6.40433 17.2114 6.36406L16.4413 6.32585L17.028 6.57491C17.5932 6.81473 18.4098 7.2753 18.7148 7.5262L19.3015 8.00818C20.1955 8.74246 20.8031 8.94165 22.1251 8.93402C23.2583 8.92749 23.8986 8.799 25.4386 8.26949C25.95 8.09355 26.4605 7.94966 26.573 7.94966C26.9237 7.94966 29.9686 9.05701 31.0167 9.56569C32.2266 10.1529 33.0558 10.9039 33.3547 11.683C33.5466 12.183 33.6102 13.0389 33.4998 13.6335C33.3753 14.3032 32.8972 15.215 32.3269 15.8703C32.1402 16.0848 32.0913 16.1089 32.0291 16.017C31.9883 15.9565 31.9539 15.841 31.9528 15.7603C31.9441 15.1201 31.4598 14.3093 30.9224 14.0351C30.2886 13.7117 29.4908 13.5972 28.0868 13.6282C26.7125 13.6585 25.8459 13.7762 24.7424 14.0823C24.0145 14.2843 22.8526 14.7333 22.1815 15.0722C20.8081 15.7654 18.7678 17.1552 17.5843 18.2037C15.5317 20.0221 13.6061 22.2786 12.1958 24.518C11.791 25.161 10.9504 26.6652 10.6749 27.2397C9.77636 29.1136 9.25778 30.4422 8.88631 31.8216C8.48617 33.3078 8.47745 33.3051 8.52123 31.7116C8.54279 30.925 8.59164 29.902 8.62977 29.4381C8.66791 28.9742 8.73567 28.1491 8.78027 27.6046C8.97696 25.2035 9.37468 22.55 9.84119 20.5274C10.488 17.7225 11.3644 15.2382 13.0216 11.5112C13.3075 10.8684 13.5263 10.3274 13.508 10.3091C13.337 10.138 10.7045 13.6556 9.89495 15.1369C9.58084 15.7117 8.66901 17.5393 8.52284 17.8871C7.48377 20.3596 6.79548 22.9621 6.4571 25.6978C6.28864 27.0599 6.24522 31.3953 6.38412 32.995C6.50462 34.3831 6.71004 35.7528 6.94502 36.7353C7.18389 37.7338 7.29463 38.3122 7.24659 38.3101C7.1137 38.3041 5.75157 35.6561 5.0448 34.0296C3.74127 31.0299 2.944 28.2652 2.49406 25.1844C2.28724 23.7686 2.30602 20.4289 2.52787 19.1706C3.06618 16.1169 4.04064 13.6423 5.84112 10.7566C6.71056 9.3632 8.4974 7.39404 9.97174 6.2047C10.5436 5.74339 11.5848 5.01609 11.6735 5.01609C11.6995 5.01609 11.8258 4.93725 11.9542 4.84081Z" fill="#53FF7A"/>
<path d="M20.7683 24.1989C23.7201 22.7611 27.1622 21.9047 30.7791 21.7081C31.5015 21.6688 34.1716 21.7363 34.9595 21.8137C37.284 22.0421 40.3278 22.7712 42.4607 23.6105C44.2765 24.325 46.1414 25.2487 47.9039 26.3065C48.3432 26.5701 50.5202 28.0317 50.8094 28.2573C51.2676 28.6145 52.5494 29.6917 52.5349 29.7074C52.5286 29.7143 52.1935 29.6233 51.7904 29.5049C49.7707 28.912 46.375 28.1657 43.1735 27.6111C39.4975 26.9742 34.7185 26.7198 31.2321 26.975C26.0322 27.3559 21.5512 28.5793 17.9081 30.6128C17.7871 30.6804 17.49 30.8458 17.248 30.9803C15.8644 31.7497 13.3695 33.709 12.3074 34.8603C12.2119 34.9638 11.9788 35.2135 11.7893 35.4152C11.3735 35.8578 10.471 36.9378 10.0119 37.5421C9.66496 37.9985 8.55321 39.6553 8.30613 40.084C7.89528 40.7967 8.35013 39.1601 9.19603 36.882C11.2776 31.2762 15.3089 26.8579 20.7683 24.1989Z" fill="#53FF7A"/>
<path d="M27.9189 31.0527C28.904 30.8735 29.4208 30.8059 30.9625 30.654C31.1238 30.6381 31.8969 30.6378 32.6804 30.6532C35.5507 30.7096 38.0824 31.2186 41.1566 32.3574C41.9737 32.6601 42.4788 32.8646 42.9121 33.0681C43.1163 33.164 43.597 33.3852 43.9802 33.5597C44.8774 33.9682 47.6524 35.3978 47.617 35.4332C47.6021 35.4482 47.017 35.3772 46.3167 35.2755C38.5076 34.1418 32.3528 34.0735 26.3876 35.0541C24.209 35.4122 22.6506 35.7719 20.2549 36.4693C19.4551 36.7021 17.0546 37.5592 16.2213 37.9094C14.406 38.6724 12.6535 39.5394 11.3889 40.3C10.99 40.54 10.652 40.7246 10.6376 40.7102C10.5889 40.6615 12.0416 39.2312 12.7765 38.6043C16.5566 35.3798 20.0212 33.3969 24.4791 31.9064C25.527 31.556 26.5567 31.3005 27.9189 31.0527Z" fill="#53FF7A"/>
<path d="M107.126 34.9354V22.3722H105.023V19.2019H107.126V18.0075C107.126 13.6576 107.126 13.4659 112.21 13.4659H114.356V16.415H113.218C111.836 16.415 111.231 17.0343 111.231 18.1549V19.2019H114.299V22.3722H111.332V32.43L107.126 34.9354Z" fill="#53FF7A"/>
<path fill-rule="evenodd" clip-rule="evenodd" d="M57.6227 13.6576H66.0773C70.3406 13.6576 73.2788 16.5624 73.2788 20.9419C73.2788 25.3065 70.2397 28.2261 65.8612 28.2261H61.9724V32.43L57.6227 34.9354V13.6576ZM61.9724 17.1817V24.7462H64.9106C67.4023 24.7462 68.857 23.3896 68.857 20.9566C68.857 18.5383 67.4167 17.1817 64.925 17.1817H61.9724Z" fill="#53FF7A"/>
<path d="M76.4187 34.9354V19.1281H80.4803V21.974H80.5667C81.1141 19.9686 82.4247 18.8775 84.2395 18.8775C84.7292 18.8775 85.1469 18.9512 85.435 19.0397V22.8293C85.0893 22.6818 84.5132 22.5786 83.9082 22.5786C81.8342 22.5786 80.6244 23.8762 80.6244 26.1028V32.43L76.4187 34.9354Z" fill="#53FF7A"/>
<path d="M102.344 34.9354V19.1281H98.1385V28.1819C98.1385 30.2758 96.9718 31.6471 95.0994 31.6471C93.2414 31.6471 92.2188 30.5264 92.2188 28.4178V19.1281H88.0131V29.3173C88.0131 33.0037 90.2312 35.2303 93.5727 35.2303C95.906 35.2303 97.4327 34.0801 98.1961 32.0895H98.2825V34.9354H102.344Z" fill="#53FF7A"/>
<path fill-rule="evenodd" clip-rule="evenodd" d="M131.093 30.0988H127.233C126.844 31.308 125.663 32.0895 124.122 32.0895C121.976 32.0895 120.578 30.5412 120.578 28.2851V28.0197H131.222V26.7074C131.222 21.9003 128.385 18.789 123.891 18.789C119.325 18.789 116.445 22.0625 116.445 27.1055C116.445 32.1632 119.297 35.2745 124.05 35.2745C127.866 35.2745 130.632 33.1954 131.093 30.0988ZM120.622 25.3803C120.766 23.4044 122.091 21.974 123.934 21.974C125.807 21.974 127.089 23.3601 127.175 25.3803H120.622Z" fill="#53FF7A"/>
<path d="M134.319 34.9354V19.1281H138.381V21.9445H138.467C139.288 19.9834 140.916 18.8332 143.292 18.8332C146.72 18.8332 148.65 21.0451 148.65 24.7462V34.9354H144.444V25.6457C144.444 23.5813 143.494 22.4017 141.607 22.4017C139.72 22.4017 138.525 23.8172 138.525 25.8669V34.9354H134.319Z" fill="#53FF7A"/>
<path d="M103.804 13.4659H90.2822L87.9373 16.8063H101.46L103.804 13.4659Z" fill="#53FF7A"/>
</svg>
